<svg width="261" height="261" viewBox="0 0 261 261" fill="none" xmlns="http://www.w3.org/2000/svg">
<path fill-rule="evenodd" clip-rule="evenodd" d="M130.5 261C58.4268 261 0 202.573 0 130.5C0 58.4268 58.4268 0 130.5 0C202.573 0 261 58.4268 261 130.5C261 202.573 202.573 261 130.5 261Z" fill="#3385FF"/>
<path fill-rule="evenodd" clip-rule="evenodd" d="M216.032 187.001C216.032 187.001 188.766 162.708 187.44 160.836C192.37 151.61 195 141.268 195 130.5C195 119.961 192.481 109.829 187.752 100.754C189.935 98.2927 199.314 89.302 215.888 73.7819C226.983 90.4575 233 110.055 233 130.5C233 150.855 227.036 170.371 216.032 187.001ZM188.215 45.7835C188.215 45.7835 165.24 71.2079 161.996 74.1951C152.485 68.8579 141.724 66 130.5 66C94.8776 66 66 94.8776 66 130.5C66 166.122 94.8776 195 130.5 195C141.407 195 151.877 192.301 161.189 187.25C163.814 189.682 172.7 199.087 187.847 215.466C171.041 226.827 151.206 233 130.5 233C73.8908 233 28 187.109 28 130.5C28 73.8908 73.8908 28 130.5 28C151.36 28 171.334 34.2648 188.215 45.7835Z" fill="white"/>
</svg>
