<svg viewBox="0 0 24 24" xmlns="http://www.w3.org/2000/svg">
  <path
    d="M5 19a1 1 0 0 0 1 1h12a1 1 0 0 0 1-1c0-.21-.07-.41-.18-.57L13 8.35V4h-2v4.35L5.18 18.43c-.11.16-.18.36-.18.57m1 3a3 3 0 0 1-3-3c0-.6.18-1.16.5-1.63L9 7.81V6a1 1 0 0 1-1-1V4a2 2 0 0 1 2-2h4a2 2 0 0 1 2 2v1a1 1 0 0 1-1 1v1.81l5.5 9.56c.32.47.5 1.03.5 1.63a3 3 0 0 1-3 3H6m7-6 1.34-1.34L16.27 18H7.73l2.66-4.61L13 16m-.5-4a.5.5 0 0 1 .5.5.5.5 0 0 1-.5.5.5.5 0 0 1-.5-.5.5.5 0 0 1 .5-.5z"
    style="fill:#0288d1" />
  <g transform="scale(0.9),translate(2,2)" viewBox="0 0 24 24">
    <path fill="#0288d1" d="M10.055 10.14h13v13h-13z" />
    <path
      d="M19.963 13.364a1.798 1.798 0 0 1 .903.52 2.379 2.379 0 0 1 .348.463c.004.02-.624.441-1.005.675-.014.01-.069-.05-.13-.141a.818.818 0 0 0-.68-.406c-.437-.03-.72.199-.717.582a.527.527 0 0 0 .063.27c.096.2.275.319.836.562 1.033.448 1.477.738 1.751 1.155a2.096 2.096 0 0 1 .168 1.761 1.935 1.935 0 0 1-1.597 1.144 4.428 4.428 0 0 1-1.099-.013 2.653 2.653 0 0 1-1.47-.764 2.55 2.55 0 0 1-.375-.558 1.079 1.079 0 0 1 .132-.084l.536-.308.416-.245.087.126a1.938 1.938 0 0 0 .55.525 1.341 1.341 0 0 0 1.403-.07.627.627 0 0 0 .081-.803c-.111-.162-.34-.296-.992-.578a3.575 3.575 0 0 1-1.36-.834 1.903 1.903 0 0 1-.397-.721 2.89 2.89 0 0 1-.025-.922 1.76 1.76 0 0 1 1.48-1.371 3.656 3.656 0 0 1 1.094.035zm-3.389.601.005.592H14.7v5.34H13.37v-5.34H11.49v-.579a5.682 5.682 0 0 1 .017-.596c.006-.01 1.15-.013 2.537-.012l2.523.008z"
      fill="#ffffff" />
  </g>
</svg>